<svg width="300" height="250" viewBox="0 0 300 250" fill="none" xmlns="http://www.w3.org/2000/svg">
<g clip-path="url(#clip0_507_15)">
<path d="M14 50.4H55.6L90 117.2L123.6 50.4H165.2V188H123.6V114.6L98.2 162.6H81.2L55.6 114.6V188H14V50.4Z" fill="#94C4C8"/>
<path d="M185.744 87.8H226.944V154.4C231.077 157.067 235.01 158.4 238.744 158.4C246.477 158.4 250.344 153.067 250.344 142.4V87.8H291.744V145C291.744 153.667 289.744 161.533 285.744 168.6C281.744 175.667 276.344 181.2 269.544 185.2C262.877 189.2 255.544 191.2 247.544 191.2C240.877 191.2 233.61 189.333 225.744 185.6V214.4L185.744 217.2V87.8Z" fill="#676FA3"/>
</g>
<defs>
<clipPath id="clip0_507_15">
<rect width="300" height="250" fill="white"/>
</clipPath>
</defs>
</svg>
